opsz144_wdth50.ufo
<glyph name="zero" format="2">
	<unicode hex="0030"/>
	<advance width="1187"/>
	<outline>
		<contour>
			<point x="74.0020751953" y="747.0170898438" type="qcurve" smooth="yes"/>
			<point x="74.0020751953" y="1120.1375732422"/>
			<point x="361.578125" y="1516.0021972656"/>
			<point x="595.5311279297" y="1516.0021972656" type="qcurve" smooth="yes"/>
			<point x="833.1870117188" y="1516.0021972656"/>
			<point x="1113.4338989258" y="1124.1215820312"/>
			<point x="1113.4338989258" y="752.0010986328" type="qcurve" smooth="yes"/>
			<point x="1113.4338989258" y="394.8166503906"/>
			<point x="819.3775024414" y="-26"/>
			<point x="595.157409668" y="-26" type="qcurve" smooth="yes"/>
			<point x="369.684753418" y="-26"/>
			<point x="74.0020751953" y="365.9125976562"/>
		</contour>
		<contour>
			<point x="264.9094238281" y="776.9691162109" type="qcurve" smooth="yes"/>
			<point x="259" y="481"/>
			<point x="437.951171875" y="88.5379638672"/>
			<point x="595.5311279297" y="88.5379638672" type="qcurve" smooth="yes"/>
			<point x="756.1110839844" y="88.5379638672"/>
			<point x="917" y="447"/>
			<point x="922.526550293" y="755.0170898438" type="qcurve" smooth="yes"/>
			<point x="917" y="1027"/>
			<point x="749.7373657227" y="1394.3873901367"/>
			<point x="596.157409668" y="1394.3873901367" type="qcurve" smooth="yes"/>
			<point x="434.5774536133" y="1394.3873901367"/>
			<point x="259" y="1060"/>
		</contour>
	</outline>
</glyph>
<glyph name="one" format="2">
	<unicode hex="0031"/>
	<advance width="775"/>
	<outline>
		<contour>
			<point x="82.0640869141" y="0" type="line"/>
			<point x="82.0640869141" y="92.9997558594" type="line"/>
			<point x="340.05859375" y="127.9997558594" type="line"/>
			<point x="340.05859375" y="752.5607910156" type="line"/>
			<point x="335.05859375" y="1359.9030151367" type="line"/>
			<point x="101.1676025391" y="1389.7715454102" type="line"/>
			<point x="101.1676025391" y="1488.8480224609" type="line"/>
			<point x="496.5592651367" y="1517.0021972656" type="line"/>
			<point x="525.4420166016" y="1480.3099975586" type="line"/>
			<point x="516.2515258789" y="751.5607910156" type="line"/>
			<point x="516.2515258789" y="127.9997558594" type="line"/>
			<point x="763.2460327148" y="92.9997558594" type="line"/>
			<point x="763.2460327148" y="0" type="line"/>
		</contour>
	</outline>
</glyph>
<glyph name="two" format="2">
	<unicode hex="0032"/>
	<advance width="851"/>
	<outline>
		<contour>
			<point x="24.2717285156" y="-0.7692260742" type="line"/>
			<point x="24.2717285156" y="132" type="line"/>
			<point x="37.5185546875" y="258.9739379883"/>
			<point x="174.1417236328" y="500.6369018555"/>
			<point x="323.8710327148" y="621.7984619141" type="qcurve" smooth="yes"/>
			<point x="440.4557495117" y="711.2167358398"/>
			<point x="600.4805908203" y="961.0409545898"/>
			<point x="600.4805908203" y="1110.2177734375" type="qcurve" smooth="yes"/>
			<point x="600.4805908203" y="1254.2356567383"/>
			<point x="462.0043334961" y="1368.8489379883"/>
			<point x="365.6833496094" y="1368.8489379883" type="qcurve" smooth="yes"/>
			<point x="284.9891357422" y="1368.8489379883"/>
			<point x="163.5643920898" y="1283.0930786133"/>
			<point x="132.1175537109" y="1221.8423461914" type="qcurve"/>
			<point x="43.2717285156" y="1289.1624755859" type="line"/>
			<point x="84.5653076172" y="1381.4138183594"/>
			<point x="256.3350219727" y="1516.0021972656"/>
			<point x="426.0921630859" y="1516.0021972656" type="qcurve" smooth="yes"/>
			<point x="587.2382202148" y="1516.0021972656"/>
			<point x="809.7213745117" y="1341.5458984375"/>
			<point x="809.7213745117" y="1161.2576904297" type="qcurve" smooth="yes"/>
			<point x="809.7213745117" y="973.2806396484"/>
			<point x="503.538269043" y="681.3563842773"/>
			<point x="382.4460449219" y="574.5904541016" type="qcurve" smooth="yes"/>
			<point x="254.1192016602" y="473.6935424805"/>
			<point x="177.0505981445" y="291.549621582"/>
			<point x="169.7775268555" y="205.2560424805" type="qcurve"/>
			<point x="175.7775268555" y="196.2880249023" type="line"/>
			<point x="849.2730712891" y="196.2880249023" type="line"/>
			<point x="849.2730712891" y="-0.7692260742" type="line"/>
		</contour>
	</outline>
</glyph>
<glyph name="three" format="2">
	<unicode hex="0033"/>
	<advance width="918"/>
	<outline>
		<contour>
			<point x="-11.0255126953" y="196" type="qcurve"/>
			<point x="74.7434082031" y="286.9226074219" type="line"/>
			<point x="138.6727905273" y="206.7687988281"/>
			<point x="253.1596679688" y="118.7686767578"/>
			<point x="379.8564453125" y="118.7686767578" type="qcurve" smooth="yes"/>
			<point x="514.9596557617" y="118.7686767578"/>
			<point x="675.708984375" y="278.9654541016"/>
			<point x="675.708984375" y="468.408996582" type="qcurve" smooth="yes"/>
			<point x="675.708984375" y="633.3880004883"/>
			<point x="474.2821044922" y="771.3220214844"/>
			<point x="272.996887207" y="767.0143432617" type="qcurve" smooth="yes"/>
			<point x="197.1531982422" y="767.0143432617" type="line"/>
			<point x="153.0565795898" y="873.3056030273" type="line"/>
			<point x="267.6994018555" y="876.9318847656" type="line" smooth="yes"/>
			<point x="431.9102783203" y="880.2185058594"/>
			<point x="626.0621948242" y="1006.9000854492"/>
			<point x="626.0621948242" y="1127.8500366211" type="qcurve" smooth="yes"/>
			<point x="626.0621948242" y="1261.2325439453"/>
			<point x="502.7070922852" y="1367.1405639648"/>
			<point x="408.6333618164" y="1367.1405639648" type="qcurve" smooth="yes"/>
			<point x="304.5525512695" y="1367.1405639648"/>
			<point x="188.604309082" y="1256.7196655273"/>
			<point x="141.0703735352" y="1170.182800293" type="qcurve"/>
			<point x="53.5001220703" y="1269.6401367188" type="line"/>
			<point x="106.9211425781" y="1380.8023071289"/>
			<point x="296.2841186523" y="1515.9702148438"/>
			<point x="438.3925170898" y="1515.9702148438" type="qcurve" smooth="yes"/>
			<point x="597.3467407227" y="1515.9702148438"/>
			<point x="813.1600341797" y="1362.4499511719"/>
			<point x="813.1600341797" y="1215.8497314453" type="qcurve" smooth="yes"/>
			<point x="813.1600341797" y="1074.2495117188"/>
			<point x="621.1955566406" y="886.7292480469"/>
			<point x="459.5675048828" y="851.8411865234" type="qcurve"/>
			<point x="460.1389770508" y="850.8731689453" type="line"/>
			<point x="620.3860473633" y="836.9371337891"/>
			<point x="869.9425048828" y="643.4968261719"/>
			<point x="869.9425048828" y="438.9445800781" type="qcurve" smooth="yes"/>
			<point x="869.9425048828" y="218.4403076172"/>
			<point x="612.5920410156" y="-25"/>
			<point x="411.7932739258" y="-25" type="qcurve" smooth="yes"/>
			<point x="249.2220458984" y="-25"/>
			<point x="37.2465820312" y="105.6365356445"/>
		</contour>
	</outline>
</glyph>
<glyph name="four" format="2">
	<unicode hex="0034"/>
	<advance width="1024"/>
	<outline>
		<contour>
			<point x="13.8662109375" y="525.7846679688" type="line"/>
			<point x="726.7395629883" y="1500.3220214844" type="line"/>
			<point x="816.8837280273" y="1470.3220214844" type="line"/>
			<point x="835.598449707" y="1445.3220214844" type="line"/>
			<point x="825.598449707" y="467.7079467773" type="line"/>
			<point x="825.598449707" y="127.9997558594" type="line"/>
			<point x="1013.1284790039" y="92.9997558594" type="line"/>
			<point x="1013.1284790039" y="0" type="line"/>
			<point x="446.1017456055" y="0" type="line"/>
			<point x="446.1017456055" y="92.9997558594" type="line"/>
			<point x="655.119934082" y="127.9997558594" type="line"/>
			<point x="653.119934082" y="470.7079467773" type="line"/>
			<point x="659.119934082" y="1252.3377075195" type="line"/>
			<point x="183.0690307617" y="542.5423583984" type="line"/>
			<point x="185.0690307617" y="535.5423583984" type="line"/>
			<point x="1070.4298095703" y="524.7846679688" type="line"/>
			<point x="1070.4298095703" y="416.5543212891" type="line"/>
			<point x="20.8662109375" y="416.5543212891" type="line"/>
		</contour>
	</outline>
</glyph>
<glyph name="five" format="2">
	<unicode hex="0035"/>
	<advance width="1026"/>
	<outline>
		<contour>
			<point x="-5.2420654297" y="110" type="qcurve"/>
			<point x="70.8890380859" y="204.4770507812" type="line"/>
			<point x="134.4352416992" y="165.0134887695"/>
			<point x="278.6976318359" y="112.1532592773"/>
			<point x="412.9846801758" y="112.1532592773" type="qcurve" smooth="yes"/>
			<point x="580.4046020508" y="112.1532592773"/>
			<point x="772.1616210938" y="313.9204101562"/>
			<point x="772.1616210938" y="486.8094482422" type="qcurve" smooth="yes"/>
			<point x="772.1616210938" y="652.7144775391"/>
			<point x="532.6732177734" y="779.2640380859"/>
			<point x="253.5482788086" y="779.2640380859" type="qcurve" smooth="yes"/>
			<point x="145.6328735352" y="779.2640380859" type="line"/>
			<point x="112.5560913086" y="818.8891601562" type="line"/>
			<point x="152.5560913086" y="1463.2580566406" type="line"/>
			<point x="175.5560913086" y="1496.2580566406" type="line"/>
			<point x="880.9625854492" y="1496.2580566406" type="line"/>
			<point x="849.1788330078" y="1288.0651245117" type="line"/>
			<point x="250.496887207" y="1288.0651245117" type="line"/>
			<point x="242.496887207" y="1277.0651245117" type="line"/>
			<point x="224.2479248047" y="920.1257324219" type="line"/>
			<point x="368.7915649414" y="969.1066894531" type="line"/>
			<point x="667.3442382812" y="981.9957885742"/>
			<point x="954.6879882812" y="715.9141235352"/>
			<point x="954.6879882812" y="469.5888061523" type="qcurve" smooth="yes"/>
			<point x="954.6879882812" y="226.4083251953"/>
			<point x="664.2271728516" y="-23"/>
			<point x="456.3187866211" y="-23" type="qcurve" smooth="yes"/>
			<point x="300.7305908203" y="-23"/>
			<point x="67.780456543" y="59.6467895508"/>
		</contour>
	</outline>
</glyph>
<glyph name="six" format="2">
	<unicode hex="0036"/>
	<advance width="1164"/>
	<outline>
		<contour>
			<point x="69.0020751953" y="599.3848876953" type="qcurve" smooth="yes"/>
			<point x="69.0020751953" y="967.7052612305"/>
			<point x="514.5817260742" y="1477.6098632812"/>
			<point x="887.4885253906" y="1546.0021972656" type="qcurve"/>
			<point x="900.0845336914" y="1402.6898193359" type="line"/>
			<point x="612.0731201172" y="1354.8251342773"/>
			<point x="269.5284423828" y="950.0280151367"/>
			<point x="269.5284423828" y="593.3848876953" type="qcurve" smooth="yes"/>
			<point x="269.5284423828" y="429.7272338867"/>
			<point x="466.3791503906" y="84.9995117188"/>
			<point x="619.9591064453" y="84.9995117188" type="qcurve" smooth="yes"/>
			<point x="762.5390625" y="84.9995117188"/>
			<point x="936.6814575195" y="306.4423217773"/>
			<point x="936.6814575195" y="428.7846679688" type="qcurve" smooth="yes"/>
			<point x="936.6814575195" y="588.7645263672"/>
			<point x="776.4403076172" y="761.3031005859"/>
			<point x="660.5525512695" y="761.3031005859" type="qcurve" smooth="yes"/>
			<point x="563.9598388672" y="761.3031005859"/>
			<point x="488.9106445312" y="737.0998535156"/>
			<point x="453.8552246094" y="718.2553100586" type="qcurve"/>
			<point x="411.3049926758" y="796.5886230469" type="line"/>
			<point x="438.3195800781" y="822.1978759766"/>
			<point x="577.4862670898" y="882.6013183594"/>
			<point x="679.9466552734" y="882.6013183594" type="qcurve" smooth="yes"/>
			<point x="867.0191650391" y="882.6013183594"/>
			<point x="1131.6842041016" y="690.208984375"/>
			<point x="1131.6842041016" y="446.129699707" type="qcurve" smooth="yes"/>
			<point x="1131.6842041016" y="231.2963867188"/>
			<point x="832.6628417969" y="-24"/>
			<point x="612.7431640625" y="-24" type="qcurve" smooth="yes"/>
			<point x="373.3024902344" y="-24"/>
			<point x="69.0020751953" y="340.6551513672"/>
		</contour>
	</outline>
</glyph>
<glyph name="seven" format="2">
	<unicode hex="0037"/>
	<advance width="975"/>
	<outline>
		<contour>
			<point x="22.1699829102" y="1066.5947875977" type="line"/>
			<point x="44.6301269531" y="1496.2580566406" type="line"/>
			<point x="900.8226928711" y="1496.2580566406" type="line"/>
			<point x="900.8226928711" y="1412.9237060547" type="line"/>
			<point x="579.6389770508" y="739.5599365234" type="line"/>
			<point x="291.5464477539" y="-10" type="line"/>
			<point x="208.1627197266" y="-10" type="line"/>
			<point x="208.1627197266" y="31.5245361328" type="line"/>
			<point x="491.2493896484" y="773.5792236328" type="line"/>
			<point x="715.8359375" y="1289.589050293" type="line"/>
			<point x="718.8359375" y="1300.589050293" type="line"/>
			<point x="209.7244873047" y="1300.589050293" type="line"/>
			<point x="136.1099853516" y="1066.5947875977" type="line"/>
		</contour>
	</outline>
</glyph>
<glyph name="eight" format="2">
	<unicode hex="0038"/>
	<advance width="1037"/>
	<outline>
		<contour>
			<point x="2.4504394531" y="353.3382568359" type="qcurve" smooth="yes"/>
			<point x="2.4504394531" y="532.638671875"/>
			<point x="287.4744873047" y="777.9952392578"/>
			<point x="397.0574951172" y="832.8321533203" type="qcurve"/>
			<point x="479.3180541992" y="778.2115478516" type="line"/>
			<point x="354.1955566406" y="719.6004638672"/>
			<point x="167.2190551758" y="486.604675293"/>
			<point x="167.2190551758" y="357.4440307617" type="qcurve" smooth="yes"/>
			<point x="167.2190551758" y="201.965637207"/>
			<point x="356.6127319336" y="88.4610595703"/>
			<point x="518.1499633789" y="88.4610595703" type="qcurve" smooth="yes"/>
			<point x="636.0642700195" y="88.4610595703"/>
			<point x="845.5252075195" y="187.0296020508"/>
			<point x="845.5252075195" y="332.5616455078" type="qcurve" smooth="yes"/>
			<point x="845.5252075195" y="476.3908081055"/>
			<point x="640.7381591797" y="632.2632446289"/>
			<point x="495.1591186523" y="699.7415161133" type="qcurve" smooth="yes"/>
			<point x="292.6591796875" y="826.071105957"/>
			<point x="106.7740478516" y="1028.2388305664"/>
			<point x="106.7740478516" y="1177.3911743164" type="qcurve" smooth="yes"/>
			<point x="106.7740478516" y="1329.9594116211"/>
			<point x="346.8284912109" y="1507.1301269531"/>
			<point x="506.9310302734" y="1507.1301269531" type="qcurve" smooth="yes"/>
			<point x="669.7360839844" y="1507.1301269531"/>
			<point x="901.7044067383" y="1358.6098632812"/>
			<point x="901.7044067383" y="1199.3623046875" type="qcurve" smooth="yes"/>
			<point x="901.7044067383" y="1066.867980957"/>
			<point x="722.7327270508" y="863.7803955078"/>
			<point x="624.3110961914" y="794.6403198242" type="qcurve"/>
			<point x="528.1287841797" y="852.2653808594" type="line"/>
			<point x="627.3729248047" y="919.7291870117"/>
			<point x="746.3973388672" y="1070.8391113281"/>
			<point x="747.1665649414" y="1172.4393920898" type="qcurve" smooth="yes"/>
			<point x="747.9357910156" y="1302.8248901367"/>
			<point x="610.6224365234" y="1398.9158325195"/>
			<point x="513.799621582" y="1398.9158325195" type="qcurve" smooth="yes"/>
			<point x="396.676574707" y="1398.9158325195"/>
			<point x="251.8712768555" y="1288.1432495117"/>
			<point x="251.8712768555" y="1223.8986816406" type="qcurve" smooth="yes"/>
			<point x="251.8712768555" y="1122.4164428711"/>
			<point x="371.1170654297" y="988.3096313477"/>
			<point x="575.494140625" y="871.2750244141" type="qcurve" smooth="yes"/>
			<point x="753.0755004883" y="782.2615966797"/>
			<point x="1002.6702880859" y="569.1357421875"/>
			<point x="1002.6702880859" y="378.2637329102" type="qcurve" smooth="yes"/>
			<point x="1002.6702880859" y="187.6162109375"/>
			<point x="725.1440429688" y="-23"/>
			<point x="535.6091308594" y="-23" type="qcurve" smooth="yes"/>
			<point x="297.1484985352" y="-23"/>
			<point x="2.4504394531" y="159.3854370117"/>
		</contour>
	</outline>
</glyph>
<glyph name="nine" format="2">
	<unicode hex="0039"/>
	<advance width="1161"/>
	<outline>
		<contour>
			<point x="51.9203491211" y="1083.2974853516" type="qcurve" smooth="yes"/>
			<point x="51.9203491211" y="1307.7058105469"/>
			<point x="335.7166137695" y="1517.9862060547"/>
			<point x="548.2598876953" y="1517.9862060547" type="qcurve" smooth="yes"/>
			<point x="774.1159057617" y="1517.9862060547"/>
			<point x="1090.7236328125" y="1179.6246337891"/>
			<point x="1090.7236328125" y="923.6173095703" type="qcurve" smooth="yes"/>
			<point x="1090.7236328125" y="531.0843505859"/>
			<point x="639.9885253906" y="17.8999023438"/>
			<point x="263.141784668" y="-49.3872680664" type="qcurve"/>
			<point x="257.7983398438" y="92.3148193359" type="line"/>
			<point x="561.8975830078" y="143.9051513672"/>
			<point x="894.1018676758" y="511.958190918"/>
			<point x="892.1018676758" y="855.6013183594" type="qcurve" smooth="yes"/>
			<point x="891.1018676758" y="1086.6065673828"/>
			<point x="708.2294311523" y="1409.9866943359"/>
			<point x="543.809387207" y="1409.9866943359" type="qcurve" smooth="yes"/>
			<point x="409.0215454102" y="1409.9866943359"/>
			<point x="249.8276977539" y="1259.2758789062"/>
			<point x="249.8276977539" y="1111.2175292969" type="qcurve" smooth="yes"/>
			<point x="249.8276977539" y="954.9224853516"/>
			<point x="422.9989013672" y="800.5516967773"/>
			<point x="556.424987793" y="800.5516967773" type="qcurve" smooth="yes"/>
			<point x="607.3782348633" y="800.5516967773"/>
			<point x="694.7013549805" y="845.1766357422"/>
			<point x="715.979675293" y="852.8986206055" type="qcurve"/>
			<point x="754.1493530273" y="781.0136108398" type="line"/>
			<point x="724.3092651367" y="756.6604003906"/>
			<point x="591.9922485352" y="694.6398925781"/>
			<point x="489.5886230469" y="694.6398925781" type="qcurve" smooth="yes"/>
			<point x="313.2044067383" y="694.6398925781"/>
			<point x="51.9203491211" y="908.4287109375"/>
		</contour>
	</outline>
</glyph>
<glyph name="B" format="2">
	<unicode hex="0042"/>
	<advance width="1294"/>
	<outline>
		<contour>
			<point x="82.9930419922" y="0" type="line"/>
			<point x="82.9930419922" y="100.9987792969" type="line"/>
			<point x="289.9959716797" y="135.9987792969" type="line"/>
			<point x="291.9959716797" y="767.7976074219" type="line"/>
			<point x="289.9959716797" y="1351.8013916016" type="line"/>
			<point x="82.9930419922" y="1385.8013916016" type="line"/>
			<point x="82.9930419922" y="1500" type="line"/>
			<point x="695.0005375031" y="1500" type="line" smooth="yes"/>
			<point x="919.7683381112" y="1500"/>
			<point x="1120.7659656156" y="1315"/>
			<point x="1120.7659656156" y="1169" type="qcurve" smooth="yes"/>
			<point x="1120.7659656156" y="1010"/>
			<point x="955.9646823022" y="859.435483871"/>
			<point x="859.2029222058" y="838.435483871" type="qcurve"/>
			<point x="859.2029222058" y="831.435483871" type="line"/>
			<point x="1005.2399055727" y="805.1532258065"/>
			<point x="1193" y="604"/>
			<point x="1219.7324435327" y="446.2096774194" type="qcurve" smooth="yes"/>
			<point x="1219.7324435327" y="250"/>
			<point x="949.1560097972" y="0"/>
			<point x="729.9502780053" y="0" type="qcurve" smooth="yes"/>
		</contour>
		<contour>
			<point x="470.1340332031" y="134.6003417969" type="line"/>
			<point x="504.1721191406" y="109.8701171875" type="line"/>
			<point x="702.7115084741" y="109.8701171875" type="line" smooth="yes"/>
			<point x="874.0470797632" y="109.8701171875"/>
			<point x="1028.7572238061" y="260.6481933594"/>
			<point x="1028.7572238061" y="436" type="qcurve" smooth="yes"/>
			<point x="1028.7572238061" y="581.6047363281"/>
			<point x="878.9105421497" y="741.8393554688"/>
			<point x="733.9374015562" y="741.8393554688" type="qcurve" smooth="yes"/>
			<point x="468.4749755859" y="741.8393554688" type="line"/>
			<point x="467.7154541016" y="727.7322998047" type="line"/>
		</contour>
		<contour>
			<point x="468.5759277344" y="870.4367675781" type="line"/>
			<point x="467.6455688477" y="850.9514160156" type="line"/>
			<point x="664.2095120337" y="850.9514160156" type="line" smooth="yes"/>
			<point x="812.1301623929" y="850.9514160156"/>
			<point x="941.5658175561" y="1052.2629394531"/>
			<point x="941.5658175561" y="1180" type="qcurve" smooth="yes"/>
			<point x="941.5658175561" y="1314.1340332031"/>
			<point x="825.9475924585" y="1375.7590332031"/>
			<point x="676.6479098413" y="1375.7590332031" type="qcurve" smooth="yes"/>
			<point x="501.3116455078" y="1375.7590332031" type="line"/>
			<point x="471.2735595703" y="1356.7186889648" type="line"/>
		</contour>
	</outline>
	<anchor name="bottom" x="614" y="0"/>
	<anchor name="top" x="614" y="1500"/>
</glyph>
<glyph name="C" format="2">
	<unicode hex="0043"/>
	<advance width="1454"/>
	<outline>
		<contour>
			<point x="80.001953125" y="727" type="qcurve" smooth="yes"/>
			<point x="80.001953125" y="1133"/>
			<point x="534.7569580078" y="1512"/>
			<point x="819.4027709961" y="1512" type="qcurve" smooth="yes"/>
			<point x="970.7006225586" y="1512"/>
			<point x="1166.1363525391" y="1428"/>
			<point x="1225.5887037708" y="1374" type="qcurve"/>
			<point x="1278.6757399036" y="1488" type="line"/>
			<point x="1372.0612989856" y="1488" type="line"/>
			<point x="1372.0612989856" y="1043.5952148438" type="line"/>
			<point x="1268.0105787708" y="1043.5952148438" type="line"/>
			<point x="1205.6583448841" y="1258" type="line" smooth="yes"/>
			<point x="1168.7595411731" y="1365"/>
			<point x="992.8548583984" y="1386.2751464844"/>
			<point x="863.4202270508" y="1386.2751464844" type="qcurve" smooth="yes"/>
			<point x="578.9590454102" y="1386.2751464844"/>
			<point x="272.5352783203" y="1102.4020996094"/>
			<point x="271.5352783203" y="732" type="qcurve" smooth="yes"/>
			<point x="270.5352783203" y="449.5493164062"/>
			<point x="615.9633277155" y="113.90234375"/>
			<point x="896.6788015058" y="113.90234375" type="qcurve" smooth="yes"/>
			<point x="1099.4714788621" y="113.90234375"/>
			<point x="1291.6437988281" y="240.6926269531"/>
			<point x="1324.2275390625" y="301.1284179688" type="qcurve"/>
			<point x="1415.5977980091" y="235" type="line"/>
			<point x="1348.8508911133" y="139"/>
			<point x="1071.7736206055" y="-30"/>
			<point x="875.3046264648" y="-30" type="qcurve" smooth="yes"/>
			<point x="538.2287597656" y="-30"/>
			<point x="80.001953125" y="364"/>
		</contour>
	</outline>
	<anchor name="bottom" x="836" y="0"/>
	<anchor name="top" x="836" y="1500"/>
</glyph>
<glyph name="G" format="2">
	<unicode hex="0047"/>
	<advance width="1531"/>
	<outline>
		<contour>
			<point x="81.001953125" y="715" type="qcurve" smooth="yes"/>
			<point x="81.001953125" y="1123"/>
			<point x="505.84375" y="1512"/>
			<point x="799.0772094727" y="1512" type="qcurve" smooth="yes"/>
			<point x="952.5546264648" y="1512"/>
			<point x="1143.6381225586" y="1470.5805664062"/>
			<point x="1206.241394043" y="1421.1611328125" type="qcurve"/>
			<point x="1247.2152709961" y="1488" type="line"/>
			<point x="1344.7455444336" y="1488" type="line"/>
			<point x="1344.7455444336" y="1043.7290039062" type="line"/>
			<point x="1233.8281860352" y="1043.7290039062" type="line"/>
			<point x="1187.7604370117" y="1241" type="line" smooth="yes"/>
			<point x="1164.7604370117" y="1364"/>
			<point x="930.0408325195" y="1384.6945800781"/>
			<point x="793.9497680664" y="1386.6945800781" type="qcurve" smooth="yes"/>
			<point x="585.1614379883" y="1389.6945800781"/>
			<point x="272.6748046875" y="1060.8125"/>
			<point x="272.6748046875" y="736" type="qcurve" smooth="yes"/>
			<point x="271.6748046875" y="482.8122558594"/>
			<point x="608.2666625977" y="113.4184570312"/>
			<point x="919.3411254883" y="113.4184570312" type="qcurve" smooth="yes"/>
			<point x="981.4006347656" y="113.4184570312"/>
			<point x="1153.1231689453" y="114.8056640625"/>
			<point x="1229.104675293" y="138.5314941406" type="qcurve"/>
			<point x="1229.104675293" y="537.0012207031" type="line"/>
			<point x="1049.0826416016" y="572.0012207031" type="line"/>
			<point x="1049.0826416016" y="677" type="line"/>
			<point x="1513.9311523438" y="677" type="line"/>
			<point x="1513.9311523438" y="572.0012207031" type="line"/>
			<point x="1388.9869995117" y="537.0012207031" type="line"/>
			<point x="1388.9869995117" y="137" type="line"/>
			<point x="1352.4652099609" y="60"/>
			<point x="1059.2255249023" y="-18"/>
			<point x="866.5958862305" y="-18" type="qcurve" smooth="yes"/>
			<point x="556.421875" y="-18"/>
			<point x="81.001953125" y="359"/>
		</contour>
	</outline>
	<anchor name="bottom" x="872" y="0"/>
	<anchor name="top" x="836" y="1500"/>
</glyph>
<glyph name="I" format="2">
	<unicode hex="0049"/>
	<advance width="792"/>
	<outline>
		<contour>
			<point x="95.6492919922" y="0" type="line"/>
			<point x="95.6492919922" y="100.9987792969" type="line"/>
			<point x="305.0754394531" y="135.9987792969" type="line"/>
			<point x="307.3544921875" y="754" type="line"/>
			<point x="305.0754394531" y="1351.8013916016" type="line"/>
			<point x="95.6492919922" y="1385.8013916016" type="line"/>
			<point x="95.6492919922" y="1500" type="line"/>
			<point x="696.6396484375" y="1500" type="line"/>
			<point x="696.6396484375" y="1385.8013916016" type="line"/>
			<point x="487.2135009766" y="1351.8013916016" type="line"/>
			<point x="484.9344482422" y="754" type="line"/>
			<point x="487.2135009766" y="135.9987792969" type="line"/>
			<point x="696.6396484375" y="100.9987792969" type="line"/>
			<point x="696.6396484375" y="0" type="line"/>
		</contour>
	</outline>
	<anchor name="bottom" x="390" y="0"/>
	<anchor name="ogonek" x="526" y="0"/>
	<anchor name="top" x="390" y="1500"/>
	<anchor name="tonos" x="0" y="1500"/>
	<anchor name="yu_dash" x="380" y="755"/>
	<anchor name="_Yeru_I" x="82" y="0"/>
	<anchor name="liga" x="780" y="0"/>
</glyph>
<glyph name="P" format="2">
	<unicode hex="0050"/>
	<advance width="1264"/>
	<outline>
		<contour>
			<point x="82.9930419922" y="0" type="line"/>
			<point x="82.9930419922" y="99.9987792969" type="line"/>
			<point x="289.9959716797" y="134.9987792969" type="line"/>
			<point x="293.6547851562" y="754" type="line"/>
			<point x="289.9959716797" y="1351.8013916016" type="line"/>
			<point x="82.9930419922" y="1385.8013916016" type="line"/>
			<point x="82.9930419922" y="1500" type="line"/>
			<point x="746.4901733398" y="1500" type="line" smooth="yes"/>
			<point x="974.0818481445" y="1500"/>
			<point x="1218.7066650391" y="1286"/>
			<point x="1217.7066650391" y="1086" type="qcurve" smooth="yes"/>
			<point x="1216.7066650391" y="882"/>
			<point x="967.7955932617" y="603.4680175781"/>
			<point x="698.8707885742" y="603.4680175781" type="qcurve" smooth="yes"/>
			<point x="600.4407958984" y="603.4680175781"/>
			<point x="433.9252929688" y="618.7099609375"/>
			<point x="395.3138427734" y="625.9196777344" type="qcurve"/>
			<point x="402.5695800781" y="730.7253417969" type="line"/>
			<point x="467.1955566406" y="717.4833984375"/>
			<point x="591.9833374023" y="712.8220214844"/>
			<point x="695.2746582031" y="712.8220214844" type="qcurve" smooth="yes"/>
			<point x="854.2414550781" y="712.8220214844"/>
			<point x="1031.8709716797" y="918.6950683594"/>
			<point x="1031.8709716797" y="1093" type="qcurve" smooth="yes"/>
			<point x="1031.8709716797" y="1256.5561523438"/>
			<point x="854.8544311523" y="1387.8557128906"/>
			<point x="686.2205200195" y="1387.8557128906" type="qcurve" smooth="yes"/>
			<point x="487.2735595703" y="1387.8557128906" type="line"/>
			<point x="469.2735595703" y="1363.8557128906" type="line"/>
			<point x="466.8549804688" y="764" type="line"/>
			<point x="470.1340332031" y="134.9987792969" type="line"/>
			<point x="683.9833984375" y="100.9987792969" type="line"/>
			<point x="683.9833984375" y="0" type="line"/>
		</contour>
	</outline>
	<anchor name="bottom" x="634" y="0"/>
	<anchor name="top" x="634" y="1500"/>
</glyph>
<glyph name="S" format="2">
	<unicode hex="0053"/>
	<advance width="1106"/>
	<outline>
		<contour>
			<point x="55.4953613281" y="1" type="line"/>
			<point x="55.4953613281" y="437.0029907227" type="line"/>
			<point x="159.3041992188" y="437.0029907227" type="line"/>
			<point x="216.6891774824" y="244" type="line" smooth="yes"/>
			<point x="232.4877299648" y="224.5716828377"/>
			<point x="417.8701152187" y="93.6926269531"/>
			<point x="579.3150831653" y="93.6926269531" type="qcurve" smooth="yes"/>
			<point x="759.3903966104" y="93.6926269531"/>
			<point x="896.8994239069" y="243.3125826928"/>
			<point x="896.8994239069" y="351.7708740234" type="qcurve" smooth="yes"/>
			<point x="896.8994239069" y="497.7784266318"/>
			<point x="681.698328818" y="647.9887498425"/>
			<point x="499.4162479524" y="710.9655072612" type="qcurve" smooth="yes"/>
			<point x="318.0466722058" y="774.9573817099"/>
			<point x="105.6094655683" y="971.1024681829"/>
			<point x="105.6094655683" y="1140.8462662235" type="qcurve" smooth="yes"/>
			<point x="105.6094655683" y="1308.7080550656"/>
			<point x="329.3932495117" y="1513"/>
			<point x="491.4711303711" y="1513" type="qcurve" smooth="yes"/>
			<point x="632.264831543" y="1513"/>
			<point x="783.9053344727" y="1469.3328857422"/>
			<point x="836.8015136719" y="1432.2578125" type="qcurve"/>
			<point x="853.5550340222" y="1499" type="line"/>
			<point x="945.5207913306" y="1499" type="line"/>
			<point x="945.5207913306" y="1098.7290039062" type="line"/>
			<point x="846.1960449219" y="1097.7290039062" type="line"/>
			<point x="794.9953613281" y="1268" type="line" smooth="yes"/>
			<point x="766.82421875" y="1326.5098266602"/>
			<point x="639.5065917969" y="1391.4848632812"/>
			<point x="498.8271484375" y="1391.4848632812" type="qcurve" smooth="yes"/>
			<point x="347.1586914062" y="1391.4848632812"/>
			<point x="262.6590576172" y="1274.2978515625"/>
			<point x="262.6590576172" y="1192.3238249748" type="qcurve" smooth="yes"/>
			<point x="262.6590576172" y="1095.5221616684"/>
			<point x="416.093844506" y="963.7914487777"/>
			<point x="618.9327412267" y="888.5650378812" type="qcurve" smooth="yes"/>
			<point x="809.1332318706" y="823.7220518051"/>
			<point x="1062.4700120495" y="605.5227641444"/>
			<point x="1062.4700120495" y="411.611422631" type="qcurve" smooth="yes"/>
			<point x="1062.4700120495" y="220.7092324534"/>
			<point x="805.4261454921" y="-21"/>
			<point x="595.1309479745" y="-21" type="qcurve" smooth="yes"/>
			<point x="483.8237501575" y="-21"/>
			<point x="265.4409100933" y="53"/>
			<point x="202.0182239163" y="123" type="qcurve"/>
			<point x="155.158996582" y="1" type="line"/>
		</contour>
	</outline>
	<anchor name="bottom" x="599" y="0"/>
	<anchor name="top" x="514" y="1500"/>
</glyph>
<glyph name="Z" format="2">
	<unicode hex="005A"/>
	<advance width="1079"/>
	<outline>
		<contour>
			<point x="54.5657958984" y="0" type="line"/>
			<point x="25.1304931641" y="97.0639648438" type="line"/>
			<point x="781.8697509766" y="1379.8557128906" type="line"/>
			<point x="777.8697509766" y="1385.8557128906" type="line"/>
			<point x="248.90234375" y="1385.8557128906" type="line"/>
			<point x="145.1013183594" y="1036.646484375" type="line"/>
			<point x="39.9533691406" y="1036.646484375" type="line"/>
			<point x="39.9533691406" y="1500" type="line"/>
			<point x="994.9774799962" y="1500" type="line"/>
			<point x="994.9774799962" y="1401.6296386719" type="line"/>
			<point x="241.2201124622" y="118.5637207031" type="line"/>
			<point x="245.2201124622" y="104.5637207031" type="line"/>
			<point x="826.2445068359" y="104.5637207031" type="line"/>
			<point x="975.9608784337" y="473.5714111328" type="line"/>
			<point x="1073.6960468907" y="473.5714111328" type="line"/>
			<point x="1013.8285542149" y="0" type="line"/>
		</contour>
	</outline>
	<anchor name="bottom" x="583" y="0"/>
	<anchor name="top" x="583" y="1500"/>
	<anchor name="_liga" x="0" y="0"/>
</glyph>
<glyph name="a" format="2">
	<unicode hex="0061"/>
	<advance width="1046"/>
	<outline>
		<contour>
			<point x="68.5493164062" y="224.9321289062" type="qcurve" smooth="yes"/>
			<point x="68.5493164062" y="366.3981933594"/>
			<point x="360.6052246094" y="567.9091796875"/>
			<point x="720.143737793" y="633.0333862305" type="qcurve"/>
			<point x="720.143737793" y="549.9342651367" type="line"/>
			<point x="538.1051635742" y="519.8841552734"/>
			<point x="245.3168945312" y="396.7477416992"/>
			<point x="245.3168945312" y="261.882019043" type="qcurve" smooth="yes"/>
			<point x="245.3168945312" y="171.3018188477"/>
			<point x="325.8201293945" y="117.0373535156"/>
			<point x="378.5368041992" y="117.0373535156" type="qcurve" smooth="yes"/>
			<point x="457.9197998047" y="117.0373535156"/>
			<point x="639.705871582" y="197.9108886719"/>
			<point x="658.735534668" y="255.8645019531" type="qcurve"/>
			<point x="660.266418457" y="578.0177612305" type="line" smooth="yes"/>
			<point x="661.4392700195" y="808.7900390625"/>
			<point x="540.9125366211" y="917.5444335938"/>
			<point x="468.7341918945" y="917.5444335938" type="qcurve" smooth="yes"/>
			<point x="375.3897094727" y="917.5444335938"/>
			<point x="309.3200073242" y="902.1369628906"/>
			<point x="294.1951904297" y="893.8287353516" type="qcurve"/>
			<point x="278.2523803711" y="888.5570068359"/>
			<point x="329.7412719727" y="839.4949951172"/>
			<point x="331.4897460938" y="791.7664794922" type="qcurve" smooth="yes"/>
			<point x="337.4707641602" y="746.7537841797"/>
			<point x="277.1138916016" y="704.1483154297"/>
			<point x="240.8912353516" y="704.1483154297" type="qcurve" smooth="yes"/>
			<point x="197.8043212891" y="704.1483154297"/>
			<point x="141.2163085938" y="766.5809326172"/>
			<point x="141.2163085938" y="831.8778076172" type="qcurve" smooth="yes"/>
			<point x="141.2163085938" y="913.9149169922"/>
			<point x="318.3547363281" y="1027.5819091797"/>
			<point x="475.9025878906" y="1027.5819091797" type="qcurve" smooth="yes"/>
			<point x="653.3950195312" y="1027.5819091797"/>
			<point x="830.2189331055" y="867.5425415039"/>
			<point x="831.2189331055" y="697.139831543" type="qcurve" smooth="yes"/>
			<point x="836.2189331055" y="116" type="line"/>
			<point x="985.7189331055" y="81" type="line"/>
			<point x="985.7189331055" y="0" type="line"/>
			<point x="688.6622924805" y="0" type="line"/>
			<point x="670.846862793" y="23.4326171875" type="line"/>
			<point x="659.5004882812" y="129.3325805664" type="line"/>
			<point x="628.323059082" y="68.6366577148"/>
			<point x="432.2124023438" y="-13"/>
			<point x="305.2230834961" y="-13" type="qcurve" smooth="yes"/>
			<point x="197.5757446289" y="-13"/>
			<point x="68.5493164062" y="109.1859741211"/>
		</contour>
	</outline>
	<anchor name="bottom" x="548" y="0"/>
	<anchor name="ogonek" x="878" y="0"/>
	<anchor name="top" x="514" y="1000"/>
</glyph>
<glyph name="b" format="2">
	<unicode hex="0062"/>
	<advance width="1196"/>
	<outline>
		<contour>
			<point x="184.7523803711" y="0" type="line"/>
			<point x="189.6537475586" y="527" type="line"/>
			<point x="185.7523803711" y="1380.0441894531" type="line"/>
			<point x="16.2523803711" y="1424.0441894531" type="line"/>
			<point x="16.2523803711" y="1518.5441894531" type="line"/>
			<point x="318.5443725586" y="1536.0012207031" type="line"/>
			<point x="345.5443725586" y="1534.0012207031" type="line"/>
			<point x="367.6185913086" y="1504.0012207031" type="line"/>
			<point x="365.2728881836" y="933.8226318359" type="line"/>
			<point x="399.3943481445" y="965.1289672852"/>
			<point x="557.0645141602" y="1026.5819091797"/>
			<point x="676.3661499023" y="1026.5819091797" type="qcurve" smooth="yes"/>
			<point x="856.8092651367" y="1026.5819091797"/>
			<point x="1127.6923217773" y="803.0764770508"/>
			<point x="1127.6923217773" y="536.5841674805" type="qcurve" smooth="yes"/>
			<point x="1127.6923217773" y="258.3719482422"/>
			<point x="867.7958374023" y="-10"/>
			<point x="629.118347168" y="-14" type="qcurve" smooth="yes"/>
			<point x="525.4628295898" y="-16"/>
			<point x="376.9478149414" y="49.5670776367"/>
			<point x="327.457824707" y="90.895690918" type="qcurve"/>
			<point x="271.012512207" y="0" type="line"/>
		</contour>
		<contour>
			<point x="365.5443725586" y="462.5579223633" type="line"/>
			<point x="368.692565918" y="239.2169799805" type="line"/>
			<point x="389.1094360352" y="181.7319335938"/>
			<point x="546.5056762695" y="85.7041015625"/>
			<point x="630.8364868164" y="85.7041015625" type="qcurve" smooth="yes"/>
			<point x="771.3049926758" y="85.7041015625"/>
			<point x="945.0975952148" y="327.0243530273"/>
			<point x="945.0975952148" y="504.2909545898" type="qcurve" smooth="yes"/>
			<point x="945.0975952148" y="674.2166137695"/>
			<point x="793.8713989258" y="903.3592529297"/>
			<point x="661.9780883789" y="903.3592529297" type="qcurve" smooth="yes"/>
			<point x="555.0557250977" y="903.3592529297"/>
			<point x="400.1923217773" y="849.350769043"/>
			<point x="361.5443725586" y="804.9140014648" type="qcurve"/>
		</contour>
	</outline>
	<anchor name="bottom" x="571" y="0"/>
	<anchor name="top" x="571" y="1533"/>
</glyph>
<glyph name="c" format="2">
	<unicode hex="0063"/>
	<advance width="848"/>
	<outline>
		<contour>
			<point x="63.9981689453" y="476.2778320312" type="qcurve" smooth="yes"/>
			<point x="63.9981689453" y="714.7307739258"/>
			<point x="309.6397705078" y="1024.9954833984"/>
			<point x="491.1487426758" y="1024.9954833984" type="qcurve" smooth="yes"/>
			<point x="568.858581543" y="1024.9954833984"/>
			<point x="663.8822631836" y="985.6622314453"/>
			<point x="690.0784301758" y="960.4400634766" type="qcurve"/>
			<point x="721.2697143555" y="1030.7006835938" type="line"/>
			<point x="807.4359130859" y="1030.7006835938" type="line"/>
			<point x="802.4359130859" y="647.8068847656" type="line"/>
			<point x="712.379699707" y="647.8068847656" type="line"/>
			<point x="693.6328735352" y="719.2172851562" type="line" smooth="yes"/>
			<point x="668.4650878906" y="823.383972168"/>
			<point x="580.9390258789" y="910.2172851562"/>
			<point x="527.5036621094" y="910.2172851562" type="qcurve" smooth="yes"/>
			<point x="383.7116088867" y="910.2172851562"/>
			<point x="244.5557861328" y="648.150390625"/>
			<point x="244.5557861328" y="492.9977416992" type="qcurve" smooth="yes"/>
			<point x="244.5557861328" y="335.8526611328"/>
			<point x="388.6347045898" y="110.9262695312"/>
			<point x="527.8579101562" y="110.9262695312" type="qcurve" smooth="yes"/>
			<point x="631.0177001953" y="110.9262695312"/>
			<point x="783.8100585938" y="183.3707275391"/>
			<point x="825.103515625" y="244.3706054688" type="qcurve"/>
			<point x="876.2808837891" y="194" type="line"/>
			<point x="837.3897705078" y="107"/>
			<point x="662.2010498047" y="-17"/>
			<point x="512.8851318359" y="-17" type="qcurve" smooth="yes"/>
			<point x="321.2182617188" y="-17"/>
			<point x="63.9981689453" y="264.2384643555"/>
		</contour>
	</outline>
	<anchor name="bottom" x="563" y="0"/>
	<anchor name="top" x="534" y="1000"/>
</glyph>
<glyph name="d" format="2">
	<unicode hex="0064"/>
	<advance width="1199"/>
	<outline>
		<contour>
			<point x="66.3314208984" y="485.6675415039" type="qcurve" smooth="yes"/>
			<point x="66.3314208984" y="722.0693359375"/>
			<point x="341.1838378906" y="1038.5819091797"/>
			<point x="578.9094238281" y="1038.5819091797" type="qcurve" smooth="yes"/>
			<point x="657.1784667969" y="1038.5819091797"/>
			<point x="788.1474609375" y="1003.5687866211"/>
			<point x="830.7589111328" y="973.1289672852" type="qcurve"/>
			<point x="824.1514892578" y="1384.5012207031" type="line"/>
			<point x="634.6514892578" y="1427.5012207031" type="line"/>
			<point x="634.6514892578" y="1522.0012207031" type="line"/>
			<point x="956.5491943359" y="1534.0012207031" type="line"/>
			<point x="989.1419677734" y="1533.0012207031" type="line"/>
			<point x="1010.6361083984" y="1501.0012207031" type="line"/>
			<point x="1007.7718505859" y="533.0740966797" type="line"/>
			<point x="1014.3275146484" y="116" type="line"/>
			<point x="1165.8275146484" y="81" type="line"/>
			<point x="1165.8275146484" y="0" type="line"/>
			<point x="879.8062744141" y="0" type="line"/>
			<point x="855.9627685547" y="16" type="line"/>
			<point x="838.2534179688" y="96.7592773438" type="line"/>
			<point x="802.5856933594" y="64.155090332"/>
			<point x="637.3419189453" y="-13"/>
			<point x="526.3896484375" y="-13" type="qcurve" smooth="yes"/>
			<point x="328.1842041016" y="-13"/>
			<point x="66.3314208984" y="252.1582641602"/>
		</contour>
		<contour>
			<point x="246.9261474609" y="510.2909545898" type="qcurve" smooth="yes"/>
			<point x="246.9261474609" y="352.7632446289"/>
			<point x="393.0743408203" y="102.5930175781"/>
			<point x="518.4708251953" y="101.7781982422" type="qcurve" smooth="yes"/>
			<point x="639.5461425781" y="100.9633789062"/>
			<point x="788.5980224609" y="165.3599853516"/>
			<point x="838.9798583984" y="211.7789916992" type="qcurve"/>
			<point x="838.0650634766" y="574.4375610352" type="line"/>
			<point x="834.0650634766" y="804.9108276367" type="line"/>
			<point x="810.4895019531" y="847.8483886719"/>
			<point x="683.5385742188" y="930.322265625"/>
			<point x="571.751953125" y="930.322265625" type="qcurve" smooth="yes"/>
			<point x="427.9732055664" y="930.322265625"/>
			<point x="246.9261474609" y="641.3904418945"/>
		</contour>
	</outline>
	<anchor name="bottom" x="604" y="0"/>
	<anchor name="center" x="876" y="1202"/>
	<anchor name="top" x="604" y="1534"/>
	<anchor name="topright" x="961" y="1000"/>
	<anchor name="liga" x="1207" y="0"/>
</glyph>
<glyph name="e" format="2">
	<unicode hex="0065"/>
	<advance width="969"/>
	<outline>
		<contour>
			<point x="64.664855957" y="500.6741943359" type="qcurve" smooth="yes"/>
			<point x="64.664855957" y="753.3303222656"/>
			<point x="322.7484741211" y="1023.8488769531"/>
			<point x="502.6322631836" y="1023.8488769531" type="qcurve" smooth="yes"/>
			<point x="698.6786499023" y="1023.8488769531"/>
			<point x="914.4907836914" y="789.7963867188"/>
			<point x="924.2555541992" y="577.7307739258" type="qcurve"/>
			<point x="924.2555541992" y="532.3602905273" type="line"/>
			<point x="182.7771606445" y="532.3602905273" type="line"/>
			<point x="181.7400512695" y="627.2124633789" type="line"/>
			<point x="751.2782592773" y="627.2124633789" type="line"/>
			<point x="740.4592895508" y="701.7901611328"/>
			<point x="619.435546875" y="911.1076660156"/>
			<point x="504.331237793" y="911.1076660156" type="qcurve" smooth="yes"/>
			<point x="382.4973144531" y="911.1076660156"/>
			<point x="246.9262084961" y="710.0589599609"/>
			<point x="247.741027832" y="511.1312255859" type="qcurve" smooth="yes"/>
			<point x="247.555847168" y="325.592956543"/>
			<point x="419.5751342773" y="93.9632568359"/>
			<point x="532.9896850586" y="93.9632568359" type="qcurve" smooth="yes"/>
			<point x="636.7484741211" y="93.9632568359"/>
			<point x="778.8964233398" y="156.0743408203"/>
			<point x="844.0679321289" y="235.5557861328" type="qcurve"/>
			<point x="896.1051635742" y="184" type="line"/>
			<point x="834.3775024414" y="80"/>
			<point x="664.9478149414" y="-17"/>
			<point x="522.9603881836" y="-17" type="qcurve" smooth="yes"/>
			<point x="321.0729370117" y="-17"/>
			<point x="64.664855957" y="259.1665039062"/>
		</contour>
	</outline>
	<anchor name="bottom" x="578" y="0"/>
	<anchor name="ogonek" x="744" y="0"/>
	<anchor name="top" x="539" y="1000"/>
</glyph>
<glyph name="f" format="2">
	<unicode hex="0066"/>
	<advance width="662"/>
	<outline>
		<contour>
			<point x="80.3360595703" y="0" type="line"/>
			<point x="80.3360595703" y="81" type="line"/>
			<point x="250.3360595703" y="116" type="line"/>
			<point x="256.3360595703" y="477" type="line"/>
			<point x="256.3360595703" y="860.8238525391" type="line"/>
			<point x="116.6702270508" y="867.8238525391" type="line"/>
			<point x="116.6702270508" y="978.6020507812" type="line"/>
			<point x="257.3360595703" y="986.6020507812" type="line"/>
			<point x="253.3360595703" y="1269.8442382812" type="line" smooth="yes"/>
			<point x="251.9475097656" y="1381.2387695312"/>
			<point x="392.1646118164" y="1512.8442382812"/>
			<point x="499.7537231445" y="1512.8442382812" type="qcurve" smooth="yes"/>
			<point x="542.8609008789" y="1512.8442382812"/>
			<point x="600.1011962891" y="1503.5513916016"/>
			<point x="636.0230102539" y="1492.5942382812" type="qcurve" smooth="yes"/>
			<point x="656.3049926758" y="1485.0942382812" type="line"/>
			<point x="640.3110961914" y="1381.2994995117" type="line"/>
			<point x="615.1958618164" y="1386.3442382812" type="line" smooth="yes"/>
			<point x="602.5455932617" y="1390.2670898438"/>
			<point x="578.2163696289" y="1391.3442382812"/>
			<point x="558.8983764648" y="1391.3442382812" type="qcurve" smooth="yes"/>
			<point x="488.7985229492" y="1391.3442382812"/>
			<point x="430.8901977539" y="1340.6047973633"/>
			<point x="429.9552001953" y="1313.6527709961" type="qcurve" smooth="yes"/>
			<point x="426.4737548828" y="987.6020507812" type="line"/>
			<point x="609.6764526367" y="987.6020507812" type="line"/>
			<point x="609.6764526367" y="868.8238525391" type="line"/>
			<point x="427.4737548828" y="866.8238525391" type="line"/>
			<point x="425.4737548828" y="477" type="line"/>
			<point x="429.4737548828" y="116" type="line"/>
			<point x="625.4737548828" y="81" type="line"/>
			<point x="625.4737548828" y="0" type="line"/>
		</contour>
	</outline>
	<anchor name="bottom" x="314" y="0"/>
	<anchor name="top" x="314" y="1536"/>
</glyph>
<glyph name="g" format="2">
	<unicode hex="0067"/>
	<advance width="896"/>
	<outline>
		<contour>
			<point x="28.3464355469" y="-239.1767578125" type="qcurve" smooth="yes"/>
			<point x="28.3464355469" y="-148.1615600586"/>
			<point x="102.958984375" y="-18.7755737305"/>
			<point x="231.9671630859" y="63.0014038086" type="qcurve"/>
			<point x="377.7103881836" y="44.0554199219" type="line"/>
			<point x="180.1408081055" y="-76.5720825195"/>
			<point x="93.9157714844" y="-211.6049194336"/>
			<point x="93.9157714844" y="-249.1500244141" type="qcurve" smooth="yes"/>
			<point x="93.9157714844" y="-347.2875976562"/>
			<point x="248.54296875" y="-388.3491210938"/>
			<point x="479.5072021484" y="-388.3491210938" type="qcurve" smooth="yes"/>
			<point x="597.1673583984" y="-388.3491210938"/>
			<point x="812.1976318359" y="-331.8289794922"/>
			<point x="812.1976318359" y="-250.4066162109" type="qcurve" smooth="yes"/>
			<point x="812.1976318359" y="-162.5314941406"/>
			<point x="607.3621826172" y="-102.9827880859"/>
			<point x="443.0198974609" y="-64.8475341797" type="qcurve" smooth="yes"/>
			<point x="255.1057128906" y="-26.1637573242"/>
			<point x="65.0521240234" y="54.1854248047"/>
			<point x="65.0521240234" y="136.3720092773" type="qcurve" smooth="yes"/>
			<point x="65.0521240234" y="209.930847168"/>
			<point x="212.0614013672" y="328.6132202148"/>
			<point x="290.0740966797" y="369.1784057617" type="qcurve"/>
			<point x="317.0275878906" y="313.5099487305" type="line"/>
			<point x="269.9940185547" y="297.6831054688"/>
			<point x="150.7445068359" y="247.7932128906"/>
			<point x="150.7445068359" y="216.39453125" type="qcurve" smooth="yes"/>
			<point x="150.7445068359" y="171.0355224609"/>
			<point x="341.7431640625" y="134.9604492188"/>
			<point x="520.5661621094" y="99.2159423828" type="qcurve" smooth="yes"/>
			<point x="708.4774169922" y="65.8901977539"/>
			<point x="903.0257568359" y="-23.005859375"/>
			<point x="903.0257568359" y="-152.8677368164" type="qcurve" smooth="yes"/>
			<point x="903.0257568359" y="-298.3747558594"/>
			<point x="680.3845214844" y="-480.4235839844"/>
			<point x="453.5041503906" y="-480.4235839844" type="qcurve" smooth="yes"/>
			<point x="237.0247802734" y="-480.4235839844"/>
			<point x="28.3464355469" y="-361.3715820312"/>
		</contour>
		<contour>
			<point x="62.3051757812" y="651.1862182617" type="qcurve" smooth="yes"/>
			<point x="62.3051757812" y="812.8075561523"/>
			<point x="273.6741943359" y="1023.8488769531"/>
			<point x="442.3056640625" y="1023.8488769531" type="qcurve" smooth="yes"/>
			<point x="614.4185791016" y="1023.8488769531"/>
			<point x="826.3265380859" y="821.8075561523"/>
			<point x="826.3265380859" y="658.1423339844" type="qcurve" smooth="yes"/>
			<point x="827.3265380859" y="513.7928466797"/>
			<point x="630.1857910156" y="280.0173339844"/>
			<point x="460.3741455078" y="280.0173339844" type="qcurve" smooth="yes"/>
			<point x="292.7667236328" y="280.0173339844"/>
			<point x="62.3051757812" y="496.1508789062"/>
		</contour>
		<contour>
			<point x="236.8627929688" y="665.4967651367" type="qcurve" smooth="yes"/>
			<point x="236.8627929688" y="567.3393554688"/>
			<point x="351.2874145508" y="383.4251708984"/>
			<point x="460.7271728516" y="383.4251708984" type="qcurve" smooth="yes"/>
			<point x="550.7553100586" y="383.4251708984"/>
			<point x="653.4232177734" y="557.8975830078"/>
			<point x="653.4232177734" y="655.4253540039" type="qcurve" smooth="yes"/>
			<point x="653.4232177734" y="749.5827636719"/>
			<point x="535.3479614258" y="908.6632080078"/>
			<point x="435.908203125" y="908.6632080078" type="qcurve" smooth="yes"/>
			<point x="341.5565185547" y="908.6632080078"/>
			<point x="236.8627929688" y="754.4689941406"/>
		</contour>
		<contour>
			<point x="459.1682128906" y="930.8115234375" type="line"/>
			<point x="461.1682128906" y="1000.8488769531" type="line"/>
			<point x="930.0239257812" y="987.8488769531" type="line"/>
			<point x="930.0239257812" y="877.4781494141" type="line"/>
		</contour>
	</outline>
	<anchor name="bottom" x="524" y="-416"/>
	<anchor name="top" x="484" y="1000"/>
</glyph>
<glyph name="h" format="2">
	<unicode hex="0068"/>
	<advance width="1231"/>
	<outline>
		<contour>
			<point x="64.4448852539" y="0" type="line"/>
			<point x="64.4448852539" y="81" type="line"/>
			<point x="209.4448852539" y="116" type="line"/>
			<point x="211.4448852539" y="538.1552124023" type="line"/>
			<point x="201.4448852539" y="1382.5012207031" type="line"/>
			<point x="33.4448852539" y="1427.5012207031" type="line"/>
			<point x="33.4448852539" y="1522.0012207031" type="line"/>
			<point x="334.2739868164" y="1533.0012207031" type="line"/>
			<point x="369.2739868164" y="1533.0012207031" type="line"/>
			<point x="375.2739868164" y="1502.0012207031" type="line"/>
			<point x="371.2739868164" y="845.9165039062" type="line"/>
			<point x="413.8774414062" y="915.9300537109"/>
			<point x="582.0516967773" y="1022.9954833984"/>
			<point x="710.3565673828" y="1022.9954833984" type="qcurve" smooth="yes"/>
			<point x="879.6778564453" y="1022.9954833984"/>
			<point x="1024.9340820312" y="909.2419433594"/>
			<point x="1024.9340820312" y="802.9954833984" type="qcurve" smooth="yes"/>
			<point x="1024.9340820312" y="726.037109375"/>
			<point x="1021.9340820312" y="694.485534668"/>
			<point x="1021.9340820312" y="614.1552124023" type="qcurve" smooth="yes"/>
			<point x="1026.9340820312" y="116" type="line"/>
			<point x="1174.9340820312" y="81" type="line"/>
			<point x="1174.9340820312" y="0" type="line"/>
			<point x="724.6235351562" y="0" type="line"/>
			<point x="724.6235351562" y="81" type="line"/>
			<point x="851.6235351562" y="116" type="line"/>
			<point x="851.6235351562" y="593.1552124023" type="line"/>
			<point x="852.6235351562" y="719.3648681641" type="line" smooth="yes"/>
			<point x="852.6235351562" y="782.3963012695"/>
			<point x="760.0308227539" y="854.2663574219"/>
			<point x="655.9786987305" y="854.2663574219" type="qcurve" smooth="yes"/>
			<point x="563.6416625977" y="854.2663574219"/>
			<point x="414.2069702148" y="794.5125732422"/>
			<point x="377.2739868164" y="706.6370239258" type="qcurve"/>
			<point x="377.2739868164" y="572.5819091797" type="line"/>
			<point x="379.2739868164" y="116" type="line"/>
			<point x="499.2739868164" y="81" type="line"/>
			<point x="499.2739868164" y="0" type="line"/>
		</contour>
	</outline>
	<anchor name="bottom" x="629" y="0"/>
	<anchor name="center" x="347" y="1202"/>
	<anchor name="top" x="304" y="1534"/>
</glyph>
<glyph name="k" format="2">
	<unicode hex="006B"/>
	<advance width="985"/>
	<outline>
		<contour>
			<point x="75.1995849609" y="0" type="line"/>
			<point x="75.1995849609" y="81" type="line"/>
			<point x="228.1995849609" y="116" type="line"/>
			<point x="230.5452880859" y="477" type="line"/>
			<point x="228.1995849609" y="1383.5012207031" type="line"/>
			<point x="52.1995849609" y="1427.5012207031" type="line"/>
			<point x="52.1995849609" y="1512.0012207031" type="line"/>
			<point x="355.3743896484" y="1534.0012207031" type="line"/>
			<point x="380.3743896484" y="1533.0012207031" type="line"/>
			<point x="399.3743896484" y="1502.0012207031" type="line"/>
			<point x="396.0286865234" y="506" type="line"/>
			<point x="398.3743896484" y="116" type="line"/>
			<point x="548.3743896484" y="81" type="line"/>
			<point x="548.3743896484" y="0" type="line"/>
		</contour>
		<contour>
			<point x="359.3734130859" y="466.9895019531" type="line"/>
			<point x="359.3734130859" y="590.321472168" type="line"/>
			<point x="676.2625732422" y="884.3488769531" type="line"/>
			<point x="539.7625732422" y="914.3488769531" type="line"/>
			<point x="539.7625732422" y="1004.8488769531" type="line"/>
			<point x="991.0571289062" y="1004.8488769531" type="line"/>
			<point x="991.0571289062" y="914.3488769531" type="line"/>
			<point x="834.0571289062" y="884.3488769531" type="line"/>
		</contour>
		<contour>
			<point x="431.5512084961" y="541.4653320312" type="line"/>
			<point x="549.5953979492" y="643.9331665039" type="line"/>
			<point x="921.5868530273" y="118" type="line"/>
			<point x="1025.0868530273" y="81" type="line"/>
			<point x="1025.0868530273" y="0" type="line"/>
			<point x="710.8659057617" y="0" type="line"/>
			<point x="695.8659057617" y="61.75" type="line"/>
			<point x="722.8659057617" y="118.25" type="line"/>
		</contour>
	</outline>
	<anchor name="bottom" x="608" y="0"/>
	<anchor name="top" x="578" y="1534"/>
</glyph>
<glyph name="l" format="2">
	<unicode hex="006C"/>
	<advance width="642"/>
	<outline>
		<contour>
			<point x="77.7500610352" y="0" type="line"/>
			<point x="77.7500610352" y="81" type="line"/>
			<point x="236.7500610352" y="116" type="line"/>
			<point x="240.0957641602" y="527" type="line"/>
			<point x="236.7500610352" y="1380.0441894531" type="line"/>
			<point x="58.7500610352" y="1424.0441894531" type="line"/>
			<point x="58.7500610352" y="1518.5441894531" type="line"/>
			<point x="349.6651000977" y="1534.0012207031" type="line"/>
			<point x="382.9492797852" y="1533.0012207031" type="line"/>
			<point x="407.9248657227" y="1502.0012207031" type="line"/>
			<point x="405.5791625977" y="527" type="line"/>
			<point x="407.9248657227" y="116" type="line"/>
			<point x="570.9248657227" y="81" type="line"/>
			<point x="570.9248657227" y="0" type="line"/>
		</contour>
	</outline>
	<anchor name="bottom" x="316" y="0"/>
	<anchor name="center" x="316" y="750"/>
	<anchor name="top" x="316" y="1534"/>
	<anchor name="topright" x="367" y="1000"/>
	<anchor name="centerright" x="746" y="680"/>
	<anchor name="yu_dash" x="321" y="500"/>
	<anchor name="liga" x="632" y="0"/>
</glyph>
<glyph name="m" format="2">
	<unicode hex="006D"/>
	<advance width="1893"/>
	<outline>
		<contour>
			<point x="76.6279907227" y="0" type="line"/>
			<point x="76.6279907227" y="81" type="line"/>
			<point x="225.6279907227" y="116" type="line"/>
			<point x="227.9736938477" y="561.1552124023" type="line"/>
			<point x="222.6279907227" y="844.3488769531" type="line"/>
			<point x="76.6279907227" y="879.3488769531" type="line"/>
			<point x="76.6279907227" y="973.8488769531" type="line"/>
			<point x="358.5801391602" y="1007.8488769531" type="line"/>
			<point x="379.4815063477" y="995.1203613281" type="line"/>
			<point x="386.8027954102" y="872.9846191406" type="line"/>
			<point x="429.4487915039" y="931.1574707031"/>
			<point x="622.7899169922" y="1021.8488769531"/>
			<point x="719.5465698242" y="1021.8488769531" type="qcurve" smooth="yes"/>
			<point x="837.8709106445" y="1021.8488769531"/>
			<point x="1005.2632446289" y="951.7869873047"/>
			<point x="1022.3809814453" y="872.0832519531" type="qcurve"/>
			<point x="1063.4689331055" y="926.4537353516"/>
			<point x="1275.9479980469" y="1021.8488769531"/>
			<point x="1372.5361938477" y="1021.8488769531" type="qcurve" smooth="yes"/>
			<point x="1514.0296630859" y="1021.8488769531"/>
			<point x="1683.2352294922" y="939.8488769531"/>
			<point x="1683.2352294922" y="860.8488769531" type="qcurve" smooth="yes"/>
			<point x="1683.2352294922" y="806.5687866211"/>
			<point x="1683.9442749023" y="615.5819091797"/>
			<point x="1684.3709716797" y="593.1552124023" type="qcurve" smooth="yes"/>
			<point x="1688.2352294922" y="116" type="line"/>
			<point x="1837.2352294922" y="81" type="line"/>
			<point x="1837.2352294922" y="0" type="line"/>
			<point x="1386.4061279297" y="0" type="line"/>
			<point x="1386.4061279297" y="81" type="line"/>
			<point x="1512.4061279297" y="116" type="line"/>
			<point x="1512.7518310547" y="593.1552124023" type="line"/>
			<point x="1517.7893676758" y="706.5395507812" type="line" smooth="yes"/>
			<point x="1519.9673461914" y="799.5395507812"/>
			<point x="1420.2891845703" y="868.5395507812"/>
			<point x="1339.1409301758" y="868.5395507812" type="qcurve" smooth="yes"/>
			<point x="1231.7259521484" y="868.5395507812"/>
			<point x="1072.9984741211" y="791.4047851562"/>
			<point x="1037.4591064453" y="741.4105834961" type="qcurve"/>
			<point x="1035.0413818359" y="822.1117553711"/>
			<point x="1034.1869506836" y="683.5819091797"/>
			<point x="1035.1869506836" y="593.1552124023" type="qcurve" smooth="yes"/>
			<point x="1040.0512084961" y="116" type="line"/>
			<point x="1173.0512084961" y="81" type="line"/>
			<point x="1173.0512084961" y="0" type="line"/>
			<point x="732.2221069336" y="0" type="line"/>
			<point x="732.2221069336" y="81" type="line"/>
			<point x="872.2221069336" y="116" type="line"/>
			<point x="872.5678100586" y="624.1552124023" type="line"/>
			<point x="872.5678100586" y="706.5395507812" type="line" smooth="yes"/>
			<point x="872.5678100586" y="799.5395507812"/>
			<point x="776.479675293" y="869.5395507812"/>
			<point x="694.0875244141" y="869.5395507812" type="qcurve" smooth="yes"/>
			<point x="589.0260009766" y="869.5395507812"/>
			<point x="436.2162475586" y="795.3668212891"/>
			<point x="391.4694213867" y="730.5053100586" type="qcurve"/>
			<point x="390.1113891602" y="595.1552124023" type="line"/>
			<point x="395.4570922852" y="116" type="line"/>
			<point x="538.4570922852" y="81" type="line"/>
			<point x="538.4570922852" y="0" type="line"/>
		</contour>
	</outline>
	<anchor name="bottom" x="958" y="0"/>
	<anchor name="top" x="958" y="1000"/>
</glyph>
<glyph name="o" format="2">
	<unicode hex="006F"/>
	<advance width="1169"/>
	<outline>
		<contour>
			<point x="63.9981689453" y="503.0438842773" type="qcurve" smooth="yes"/>
			<point x="63.9981689453" y="739.2126464844"/>
			<point x="348.095592868" y="1024.9954833984"/>
			<point x="584.3820288874" y="1024.9954833984" type="qcurve" smooth="yes"/>
			<point x="823.2612383442" y="1024.9954833984"/>
			<point x="1104.8565673828" y="752.0633544922"/>
			<point x="1104.8565673828" y="511.2909545898" type="qcurve" smooth="yes"/>
			<point x="1104.8565673828" y="268.9452514648"/>
			<point x="823.4530029297" y="-15"/>
			<point x="584.5834960938" y="-15" type="qcurve" smooth="yes"/>
			<point x="346.697265625" y="-15"/>
			<point x="63.9981689453" y="247.823059082"/>
		</contour>
		<contour>
			<point x="249.9014892578" y="524.2909545898" type="qcurve" smooth="yes"/>
			<point x="250.1837473223" y="349.3034057617"/>
			<point x="436.8709539598" y="93.9263916016"/>
			<point x="587.3630174206" y="93.9263916016" type="qcurve" smooth="yes"/>
			<point x="747.7899288055" y="93.9263916016"/>
			<point x="924.8435570501" y="310.8826904297"/>
			<point x="923.8435570501" y="506.2909545898" type="qcurve" smooth="yes"/>
			<point x="923.8435570501" y="684.8758544922"/>
			<point x="735.1786282447" y="909.1801757812"/>
			<point x="587.6452754851" y="909.1801757812" type="qcurve" smooth="yes"/>
			<point x="425.69513727" y="909.1801757812"/>
			<point x="249.9014892578" y="704.6004638672"/>
		</contour>
	</outline>
	<anchor name="bottom" x="584" y="0"/>
	<anchor name="center" x="584" y="500"/>
	<anchor name="ogonek" x="747" y="0"/>
	<anchor name="top" x="584" y="1000"/>
	<anchor name="topright" x="751" y="1000"/>
	<anchor name="GRKtop" x="584" y="1000"/>
	<anchor name="yu_dash" x="150" y="500"/>
</glyph>
<glyph name="q" format="2">
	<unicode hex="0071"/>
	<advance width="1157"/>
	<outline>
		<contour>
			<point x="68.9979248047" y="486.9977416992" type="qcurve" smooth="yes"/>
			<point x="68.9979248047" y="766.2099609375"/>
			<point x="343.1014404297" y="1026.5819091797"/>
			<point x="554.4641113281" y="1026.5819091797" type="qcurve" smooth="yes"/>
			<point x="643.4045410156" y="1026.5819091797"/>
			<point x="774.2141113281" y="969.9954833984"/>
			<point x="810.1052246094" y="921.1289672852" type="qcurve"/>
			<point x="864.1052246094" y="1015.5819091797" type="line"/>
			<point x="1132.3568115234" y="999.5819091797" type="line"/>
			<point x="1132.3568115234" y="901.8319091797" type="line"/>
			<point x="979.8568115234" y="861.8319091797" type="line"/>
			<point x="976.8568115234" y="443.411315918" type="line"/>
			<point x="976.8568115234" y="-363.9951171875" type="line"/>
			<point x="1133.8568115234" y="-398.9951171875" type="line"/>
			<point x="1133.8568115234" y="-479.9951171875" type="line"/>
			<point x="644.2191162109" y="-479.9951171875" type="line"/>
			<point x="644.2191162109" y="-398.9951171875" type="line"/>
			<point x="809.7191162109" y="-363.9951171875" type="line"/>
			<point x="813.7191162109" y="73.0393676758" type="line"/>
			<point x="772.9104003906" y="39.8796386719"/>
			<point x="645.4979248047" y="-9"/>
			<point x="526.5794677734" y="-9" type="qcurve" smooth="yes"/>
			<point x="333.9444580078" y="-9"/>
			<point x="68.9979248047" y="234.9321289062"/>
		</contour>
		<contour>
			<point x="247.1727294922" y="503.2909545898" type="qcurve" smooth="yes"/>
			<point x="247.1727294922" y="350.6740112305"/>
			<point x="408.8568725586" y="107.1856689453"/>
			<point x="546.5902099609" y="107.1856689453" type="qcurve" smooth="yes"/>
			<point x="637.4445800781" y="107.1856689453"/>
			<point x="778.1052246094" y="146.6400756836"/>
			<point x="813.7191162109" y="209.1331787109" type="qcurve"/>
			<point x="816.7191162109" y="806.4279174805" type="line"/>
			<point x="777.2904052734" y="885.1062011719"/>
			<point x="646.8660888672" y="927.0629882812"/>
			<point x="565.7104492188" y="927.0629882812" type="qcurve" smooth="yes"/>
			<point x="430.0064697266" y="927.0629882812"/>
			<point x="247.1727294922" y="649.2052612305"/>
		</contour>
	</outline>
	<anchor name="bottom" x="594" y="0"/>
	<anchor name="top" x="594" y="1000"/>
</glyph>
<glyph name="s" format="2">
	<unicode hex="0073"/>
	<advance width="805"/>
	<outline>
		<contour>
			<point x="28.9947176418" y="5.2947998047" type="line"/>
			<point x="28.9947176418" y="377.1516113281" type="line"/>
			<point x="124.2732210597" y="377.1516113281" type="line"/>
			<point x="160.7917757472" y="283.7412109375" type="line" smooth="yes"/>
			<point x="195.4936421929" y="181.9263916016"/>
			<point x="298.8682149468" y="90.4819335938"/>
			<point x="393.9186299858" y="90.4819335938" type="qcurve" smooth="yes"/>
			<point x="508.2611592827" y="90.4819335938"/>
			<point x="603.4287618218" y="195.5902099609"/>
			<point x="602.7540792046" y="261.8369140625" type="qcurve" smooth="yes"/>
			<point x="602.0793965874" y="335.4454956055"/>
			<point x="480.6834004937" y="398.6705322266"/>
			<point x="325.3213399468" y="459.966003418" type="qcurve" smooth="yes"/>
			<point x="176.1521504937" y="521.1202392578"/>
			<point x="59.6116231499" y="642.2944946289"/>
			<point x="60.9505281887" y="750.8610229492" type="qcurve" smooth="yes"/>
			<point x="62.3103536187" y="861.5936279297"/>
			<point x="227.3479512749" y="1023.8488769531"/>
			<point x="373.6476338921" y="1023.8488769531" type="qcurve" smooth="yes"/>
			<point x="457.1674092827" y="1023.8488769531"/>
			<point x="539.1286519585" y="976.5402832031"/>
			<point x="555.0532125054" y="973.1945800781" type="qcurve"/>
			<point x="601.5717671929" y="1023.5540771484" type="line"/>
			<point x="685.7760518608" y="1023.5540771484" type="line"/>
			<point x="685.7760518608" y="642.1417236328" type="line"/>
			<point x="590.9420064507" y="642.1417236328" type="line"/>
			<point x="566.4797261773" y="688.5521240234" type="line" smooth="yes"/>
			<point x="528.4112447319" y="813.5521240234"/>
			<point x="443.9977315483" y="914.5521240234"/>
			<point x="374.0548604546" y="914.5521240234" type="qcurve" smooth="yes"/>
			<point x="307.3186543999" y="914.5521240234"/>
			<point x="201.9377950249" y="850.6741943359"/>
			<point x="201.9377950249" y="807.5971679688" type="qcurve" smooth="yes"/>
			<point x="201.9377950249" y="745.2268066406"/>
			<point x="293.1625643215" y="673.166015625"/>
			<point x="438.7658358058" y="619.5499267578" type="qcurve" smooth="yes"/>
			<point x="569.4934969387" y="572.6447753906"/>
			<point x="765.2371114312" y="423.9589233398"/>
			<point x="765.2371114312" y="281.3516235352" type="qcurve" smooth="yes"/>
			<point x="765.2371114312" y="140.8375854492"/>
			<point x="569.5219014702" y="-16"/>
			<point x="415.4010518608" y="-16" type="qcurve" smooth="yes"/>
			<point x="303.2472432671" y="-16"/>
			<point x="185.7320455132" y="34.345703125"/>
			<point x="144.5818148097" y="52.654296875" type="qcurve"/>
			<point x="109.0261507472" y="5.2947998047" type="line"/>
		</contour>
	</outline>
	<anchor name="bottom" x="468" y="0"/>
	<anchor name="top" x="416" y="1000"/>
</glyph>
<glyph name="u" format="2">
	<unicode hex="0075"/>
	<advance width="1248"/>
	<outline>
		<contour>
			<point x="49.0164794922" y="873.6158447266" type="line"/>
			<point x="49.0164794922" y="968.1158447266" type="line"/>
			<point x="333.3270263672" y="1002.1158447266" type="line"/>
			<point x="357.3270263672" y="1002.1158447266" type="line"/>
			<point x="369.3270263672" y="976.1158447266" type="line"/>
			<point x="370.3270263672" y="443.5339355469" type="line"/>
			<point x="372.3270263672" y="339.5560302734" type="line" smooth="yes"/>
			<point x="373.3270263672" y="198.5560302734"/>
			<point x="492.440246582" y="137.5560302734"/>
			<point x="578.7429199219" y="137.5560302734" type="qcurve" smooth="yes"/>
			<point x="662.3640136719" y="137.5560302734"/>
			<point x="798.7904052734" y="184.5560302734"/>
			<point x="852.2325439453" y="240.5560302734" type="qcurve"/>
			<point x="854.2325439453" y="451.5339355469" type="line"/>
			<point x="852.2325439453" y="843.6158447266" type="line"/>
			<point x="725.2325439453" y="873.6158447266" type="line"/>
			<point x="725.2325439453" y="968.1158447266" type="line"/>
			<point x="979.0616455078" y="1002.1158447266" type="line"/>
			<point x="1003.0616455078" y="1002.1158447266" type="line"/>
			<point x="1022.0616455078" y="966.1158447266" type="line"/>
			<point x="1019.0616455078" y="451.5339355469" type="line"/>
			<point x="1023.0616455078" y="118" type="line"/>
			<point x="1174.0616455078" y="96" type="line"/>
			<point x="1174.0616455078" y="13" type="line"/>
			<point x="897.2325439453" y="-10" type="line"/>
			<point x="862.2325439453" y="17" type="line"/>
			<point x="856.2325439453" y="111" type="line"/>
			<point x="794.3453979492" y="54"/>
			<point x="615.6533203125" y="-8"/>
			<point x="497.7305908203" y="-8" type="qcurve" smooth="yes"/>
			<point x="365.4509887695" y="-8"/>
			<point x="205.0164794922" y="135.867980957"/>
			<point x="205.0164794922" y="232" type="qcurve" smooth="yes"/>
			<point x="205.0164794922" y="295.9868774414"/>
			<point x="204.4431762695" y="430.6805419922"/>
			<point x="205.0164794922" y="443.5339355469" type="qcurve" smooth="yes"/>
			<point x="201.0164794922" y="843.6158447266" type="line"/>
		</contour>
	</outline>
	<anchor name="bottom" x="622" y="0"/>
	<anchor name="ogonek" x="1030" y="20"/>
	<anchor name="top" x="622" y="1000"/>
	<anchor name="topright" x="1005" y="1000"/>
	<anchor name="cy_descender" x="1178" y="80"/>
</glyph>
